<?xml version="1.0" encoding="UTF-8" standalone="no"?>
<!-- Generator: Adobe Illustrator 16.0.0, SVG Export Plug-In . SVG Version: 6.00 Build 0)  -->

<svg
   xmlns:dc="http://purl.org/dc/elements/1.1/"
   xmlns:cc="http://creativecommons.org/ns#"
   xmlns:rdf="http://www.w3.org/1999/02/22-rdf-syntax-ns#"
   xmlns:svg="http://www.w3.org/2000/svg"
   xmlns="http://www.w3.org/2000/svg"
   xmlns:sodipodi="http://sodipodi.sourceforge.net/DTD/sodipodi-0.dtd"
   xmlns:inkscape="http://www.inkscape.org/namespaces/inkscape"
   version="1.1"
   id="Capa_1"
   x="0px"
   y="0px"
   width="512px"
   height="512px"
   viewBox="0 0 438.533 438.533"
   style="enable-background:new 0 0 438.533 438.533;"
   xml:space="preserve"
   sodipodi:docname="circle.svg"
   inkscape:version="0.92.3 (2405546, 2018-03-11)"><metadata
   id="metadata3933"><rdf:RDF><cc:Work
       rdf:about=""><dc:format>image/svg+xml</dc:format><dc:type
         rdf:resource="http://purl.org/dc/dcmitype/StillImage" /></cc:Work></rdf:RDF></metadata><defs
   id="defs3931" /><sodipodi:namedview
   pagecolor="#ffffff"
   bordercolor="#666666"
   borderopacity="1"
   objecttolerance="10"
   gridtolerance="10"
   guidetolerance="10"
   inkscape:pageopacity="0"
   inkscape:pageshadow="2"
   inkscape:window-width="1920"
   inkscape:window-height="998"
   id="namedview3929"
   showgrid="false"
   inkscape:zoom="0.4609375"
   inkscape:cx="256"
   inkscape:cy="256"
   inkscape:window-x="0"
   inkscape:window-y="26"
   inkscape:window-maximized="1"
   inkscape:current-layer="Capa_1" />
<g
   id="g3896">
	<path
   d="M409.133,109.203c-19.608-33.592-46.205-60.189-79.798-79.796C295.736,9.801,259.058,0,219.273,0   c-39.781,0-76.47,9.801-110.063,29.407c-33.595,19.604-60.192,46.201-79.8,79.796C9.801,142.8,0,179.489,0,219.267   c0,39.78,9.804,76.463,29.407,110.062c19.607,33.592,46.204,60.189,79.799,79.798c33.597,19.605,70.283,29.407,110.063,29.407   s76.47-9.802,110.065-29.407c33.593-19.602,60.189-46.206,79.795-79.798c19.603-33.596,29.403-70.284,29.403-110.062   C438.533,179.485,428.732,142.795,409.133,109.203z"
   fill="#ada4a0"
   id="path3894" />
</g>
<g
   id="g3898">
</g>
<g
   id="g3900">
</g>
<g
   id="g3902">
</g>
<g
   id="g3904">
</g>
<g
   id="g3906">
</g>
<g
   id="g3908">
</g>
<g
   id="g3910">
</g>
<g
   id="g3912">
</g>
<g
   id="g3914">
</g>
<g
   id="g3916">
</g>
<g
   id="g3918">
</g>
<g
   id="g3920">
</g>
<g
   id="g3922">
</g>
<g
   id="g3924">
</g>
<g
   id="g3926">
</g>
<path
   style="fill:#f2f2f2;stroke-width:2.16949153"
   d="M 224.32542,509.36133 C 160.38963,500.46583 105.30493,471.08508 64.155867,423.93103 -24.423335,322.42523 -19.473956,171.61461 75.56163,76.390361 114.10901,37.766454 159.85379,13.784865 212.35953,4.6743873 241.90937,-0.45292195 292.34755,1.5526125 320.51463,8.9748753 417.40728,34.50691 491.01026,115.43348 507.60578,214.68182 c 2.79726,16.72888 3.37549,29.04892 2.41734,51.50427 -1.47832,34.6453 -5.44029,54.78884 -16.04637,81.5834 -32.02785,80.91318 -99.34368,138.87143 -182.87167,157.45065 -21.57075,4.79801 -66.61061,6.94734 -86.77966,4.14119 z"
   id="path3935"
   inkscape:connector-curvature="0"
   transform="scale(0.85650977)" /></svg>